<?xml version="1.0" encoding="UTF-8"?>
<svg version="1.1" xmlns="http://www.w3.org/2000/svg" width="310" height="310">
<path d="M0 0 C15.73587955 13.53813101 15.73587955 13.53813101 16.94824219 24.85351562 C16.24998903 31.37054512 14.68822588 35.68409288 9.82324219 40.22851562 C4.13412623 44.76737317 -0.92409051 45.69518235 -8.02050781 45.03320312 C-14.16083877 43.29875899 -18.46494938 39.62621762 -22.92675781 35.22851562 C-44.98934677 14.37680691 -74.4054579 4.45595298 -104.55175781 5.10351562 C-133.26623469 6.24843097 -161.25107457 18.87386728 -181.42675781 39.35351562 C-204.01771933 64.16005305 -213.6122613 93.97578098 -212.60595703 127.23388672 C-210.95637206 155.95104846 -196.81884155 181.99360886 -176.39550781 201.72851562 C-153.28300068 222.16483772 -123.6565115 233.02874071 -92.79101562 231.51757812 C-66.30174587 229.67941319 -42.05585836 219.18259209 -22.67675781 201.04101562 C-15.9644459 194.86910171 -11.26444899 192.77714162 -2.00878906 193.06835938 C4.02814601 193.73507081 7.71304077 196.8673356 11.57324219 201.35351562 C15.66933696 207.00330152 15.54460395 213.66637223 14.57324219 220.35351562 C11.75987769 227.20658299 6.27004106 231.86541257 0.57324219 236.35351562 C-0.37550781 237.12566406 -1.32425781 237.8978125 -2.30175781 238.69335938 C-36.26228882 265.93823121 -78.02947972 276.17743756 -121.04785156 271.89257812 C-149.33486486 268.24552853 -176.91495734 256.04349559 -198.42675781 237.35351562 C-199.255625 236.63421875 -200.08449219 235.91492188 -200.93847656 235.17382812 C-203.46833257 232.93453751 -205.95372753 230.65530549 -208.42675781 228.35351562 C-209.15507812 227.6909375 -209.88339844 227.02835937 -210.63378906 226.34570312 C-238.60065392 199.84016994 -253.31393639 160.34270673 -254.42675781 122.35351562 C-254.7855161 78.28731172 -238.58559472 40.0601622 -208.42675781 8.35351562 C-207.83507812 7.70898438 -207.24339844 7.06445312 -206.63378906 6.40039062 C-185.42850644 -16.00914262 -153.56437929 -30.0426174 -123.42675781 -34.64648438 C-122.27433594 -34.82953125 -121.12191406 -35.01257812 -119.93457031 -35.20117188 C-76.6603911 -40.38724143 -33.46587413 -27.89881221 0 0 Z " fill="#FF9700" transform="translate(261.4267578125,36.646484375)"/>
<path d="M0 0 C14.19518723 12.45005177 14.19518723 12.45005177 15.41796875 20.66015625 C14.98046875 23.72265625 14.98046875 23.72265625 12.91796875 26.59765625 C9.98046875 28.72265625 9.98046875 28.72265625 6.48046875 29.28515625 C2.321924 28.6168187 0.90438076 27.72351331 -2.01953125 24.72265625 C-3.10234375 23.08296875 -3.10234375 23.08296875 -4.20703125 21.41015625 C-10.37175243 12.46939603 -22.01606118 7.01929871 -32.4375 5.08984375 C-46.25802246 3.64796904 -58.4953322 7.0836166 -69.45703125 15.62109375 C-77.51717446 22.94602119 -83.58782262 33.64546558 -84.2578125 44.62890625 C-84.62743171 59.811471 -81.75454299 71.23299987 -71.2109375 82.6875 C-62.3858636 91.07223758 -51.17251674 95.63835244 -39.05078125 95.75 C-32.61723909 95.42666476 -27.15458231 93.98780023 -21.19921875 91.5625 C-19.01953125 90.72265625 -19.01953125 90.72265625 -17.01953125 90.72265625 C-17.34953125 90.06265625 -17.67953125 89.40265625 -18.01953125 88.72265625 C-20.68234565 89.19256467 -23.07438282 89.74418133 -25.59765625 90.734375 C-35.92402424 93.7167621 -48.89736977 93.09376021 -58.48046875 88.26171875 C-69.35233973 81.67169234 -76.67908411 73.44166026 -80.359375 61.0625 C-82.86978812 48.36188925 -81.09335775 37.10941804 -74.33203125 26.03515625 C-68.92698824 18.45723163 -62.02770142 12.43698248 -53.01953125 9.72265625 C-49.64453125 9.22265625 -49.64453125 9.22265625 -47.01953125 9.72265625 C-44.6219734 11.8108518 -44.0751112 13.00011685 -43.83203125 16.16015625 C-45.42743139 19.60286181 -47.53553546 20.55813985 -50.76171875 22.4140625 C-59.36618994 27.401083 -65.30719178 32.96775115 -68.01953125 42.72265625 C-69.06039283 52.93762339 -67.57587575 60.7042271 -62.39453125 69.47265625 C-55.92813879 75.59871227 -47.92627826 79.66746448 -38.95703125 79.97265625 C-35.25280395 79.73746721 -32.44744837 79.0938231 -29.01953125 77.72265625 C-32.73134381 76.83019858 -35.90792761 76.74947793 -39.70703125 76.97265625 C-46.82379254 77.05173138 -52.36430927 74.77397199 -57.81640625 70.22265625 C-58.2134375 69.72765625 -58.61046875 69.23265625 -59.01953125 68.72265625 C-58.70703125 66.03515625 -58.70703125 66.03515625 -58.01953125 63.72265625 C-55.83203125 62.97265625 -55.83203125 62.97265625 -53.01953125 62.72265625 C-52.29765625 63.32078125 -51.57578125 63.91890625 -50.83203125 64.53515625 C-46.89137585 67.60011045 -42.87606789 68.00596346 -38.01953125 68.72265625 C-38.42945313 68.26375 -38.839375 67.80484375 -39.26171875 67.33203125 C-39.80054688 66.7184375 -40.339375 66.10484375 -40.89453125 65.47265625 C-41.42820313 64.869375 -41.961875 64.26609375 -42.51171875 63.64453125 C-45.22685262 60.18379067 -46.37924488 57.71456106 -45.95703125 53.28515625 C-45.3399501 48.71725069 -43.69533553 46.59157666 -40.01953125 43.72265625 C-37.01639377 42.22108751 -34.22885603 42.62984421 -30.89453125 42.66015625 C-29.61320312 42.66917969 -28.331875 42.67820313 -27.01171875 42.6875 C-25.53058594 42.70490234 -25.53058594 42.70490234 -24.01953125 42.72265625 C-27.68993049 37.86477491 -30.76398002 34.36336192 -37.12109375 33.40625 C-43.07259196 33.0892458 -46.9420799 34.83071657 -52.01953125 37.72265625 C-53.67650504 38.41306199 -55.33876894 39.09237038 -57.01953125 39.72265625 C-59.01953125 37.72265625 -59.01953125 37.72265625 -59.45703125 35.34765625 C-59.01953125 32.72265625 -59.01953125 32.72265625 -56.89453125 30.59765625 C-49.61825438 25.85225829 -43.09955735 23.88094424 -34.3671875 25.08984375 C-26.77645119 26.98460382 -21.51649143 31.21130599 -17.01953125 37.53515625 C-16.01953125 39.72265625 -16.01953125 39.72265625 -16.01953125 41.72265625 C-14.03953125 41.72265625 -12.05953125 41.72265625 -10.01953125 41.72265625 C-10.06078125 40.60890625 -10.10203125 39.49515625 -10.14453125 38.34765625 C-10.01953125 34.72265625 -10.01953125 34.72265625 -8.01953125 32.72265625 C-4.58203125 32.28515625 -4.58203125 32.28515625 -1.01953125 32.72265625 C1.36211067 35.56526112 1.98046875 37.00670892 1.98046875 40.72265625 C3.18582275 40.66207031 4.39117676 40.60148437 5.63305664 40.5390625 C10.12629705 40.31367631 14.61964892 40.09058281 19.11303711 39.86816406 C21.05382325 39.77177972 22.99457906 39.67478255 24.93530273 39.57714844 C27.73283162 39.43651862 30.53046397 39.29812918 33.328125 39.16015625 C34.18882095 39.11640869 35.04951691 39.07266113 35.93629456 39.02758789 C50.72326607 38.3058073 50.72326607 38.3058073 56.98046875 42.72265625 C59.38460452 45.64943023 59.24548268 48.74570624 59.21899414 52.45410156 C58.79218398 56.51338512 57.13853364 60.02882056 55.48046875 63.72265625 C54.97966797 64.88474609 54.97966797 64.88474609 54.46875 66.0703125 C53.65219965 67.96004332 52.81813155 69.84218873 51.98046875 71.72265625 C52.77517578 72.04951416 53.56988281 72.37637207 54.38867188 72.71313477 C61.41649514 75.60595692 68.43938692 78.51021615 75.45565796 81.43095398 C79.08416799 82.94014688 82.71957743 84.43027024 86.36328125 85.90234375 C87.77766902 86.48749565 89.19176789 87.07334675 90.60546875 87.66015625 C91.79398438 88.14355469 92.9825 88.62695312 94.20703125 89.125 C97.39833986 90.96337355 98.49579827 92.383432 99.98046875 95.72265625 C100.77101751 102.38585296 99.30167659 107.88475676 95.98046875 113.72265625 C92.39622224 117.14398246 89.52408594 118.22025597 84.57617188 118.12841797 C78.47566012 117.17478267 72.77009972 114.35558412 67.10546875 111.97265625 C65.78178173 111.4270935 64.45756555 110.88281282 63.1328125 110.33984375 C60.58000684 109.29138561 58.02952104 108.23763589 55.48144531 107.17773438 C52.37754907 105.88769103 49.27296266 104.60041877 46.16015625 103.33203125 C45.39171387 103.01717773 44.62327148 102.70232422 43.83154297 102.37792969 C41.99351519 101.61142144 41.99351519 101.61142144 39.98046875 101.72265625 C39.76430908 102.27727539 39.54814941 102.83189453 39.32543945 103.40332031 C38.32972146 105.93268203 37.31165406 108.45246172 36.29296875 110.97265625 C35.7834668 112.28169922 35.7834668 112.28169922 35.26367188 113.6171875 C33.27706001 118.48160161 31.73960996 122.02727844 26.98046875 124.72265625 C22.79840384 125.83468982 18.75406654 125.72497684 14.94140625 123.5703125 C12.77422283 121.74648942 10.89383637 119.81344524 8.98046875 117.72265625 C8.30419434 116.99151611 8.30419434 116.99151611 7.61425781 116.24560547 C5.6434339 114.11436566 3.67585748 111.98206603 1.74829102 109.81152344 C-0.40877187 107.39111863 -2.30210273 105.53427526 -5.01953125 103.72265625 C-5.84453125 104.19316406 -6.66953125 104.66367188 -7.51953125 105.1484375 C-22.96144396 113.47259357 -38.82057055 115.79553897 -56.01953125 111.72265625 C-64.1379033 109.20643567 -71.31944541 105.96724768 -78.01953125 100.72265625 C-78.83035156 100.09875 -79.64117187 99.47484375 -80.4765625 98.83203125 C-93.58630549 87.95759006 -100.73396634 73.11218797 -102.765625 56.328125 C-104.0594357 37.956013 -98.69827994 21.47133092 -86.76953125 7.47265625 C-63.69299079 -16.89460597 -26.83159991 -20.23651067 0 0 Z M14.85546875 51.16015625 C13.9020459 51.19939209 12.94862305 51.23862793 11.96630859 51.27905273 C11.08152832 51.32102783 10.19674805 51.36300293 9.28515625 51.40625 C8.50124512 51.44290771 7.71733398 51.47956543 6.90966797 51.51733398 C4.89909589 51.61749105 4.89909589 51.61749105 2.98046875 52.72265625 C2.47005546 54.70530209 2.04751043 56.71085249 1.66796875 58.72265625 C-0.1367582 67.03533798 -3.43273524 73.30818676 -9.01953125 79.72265625 C-7.43013699 83.65479926 -4.85610623 86.05285971 -1.83203125 88.97265625 C1.41582503 92.1446748 4.59789461 95.32575098 7.54296875 98.78515625 C11.73600874 103.68042867 16.16904172 108.43019484 20.98046875 112.72265625 C21.64046875 112.72265625 22.30046875 112.72265625 22.98046875 112.72265625 C24.65270157 108.59989076 26.31730938 104.4740895 27.98046875 100.34765625 C28.45742187 99.17203125 28.934375 97.99640625 29.42578125 96.78515625 C29.87695312 95.66367188 30.328125 94.5421875 30.79296875 93.38671875 C31.21191406 92.3498291 31.63085938 91.31293945 32.0625 90.24462891 C33.09448048 87.85673435 33.09448048 87.85673435 32.98046875 85.72265625 C33.76881104 86.03904053 34.55715332 86.3554248 35.36938477 86.68139648 C52.21066055 93.43721262 69.0676312 100.14740558 85.98046875 106.72265625 C86.97046875 104.41265625 87.96046875 102.10265625 88.98046875 99.72265625 C72.03772614 92.57647049 55.09216255 85.45746082 37.98046875 78.72265625 C38.58471094 75.26140355 39.47894814 72.2061629 40.828125 68.96484375 C41.18583984 68.09214844 41.54355469 67.21945313 41.91210938 66.3203125 C42.6693579 64.49716148 43.42717543 62.6742467 44.18554688 60.8515625 C44.54197266 59.98144531 44.89839844 59.11132812 45.265625 58.21484375 C45.5944165 57.4244873 45.92320801 56.63413086 46.26196289 55.81982422 C47.14252532 53.61911984 47.14252532 53.61911984 46.98046875 50.72265625 C36.25973353 50.61800699 25.56803069 50.69257963 14.85546875 51.16015625 Z M-14.01953125 52.72265625 C-14.20128906 53.38652344 -14.38304687 54.05039063 -14.5703125 54.734375 C-16.70011868 62.21600182 -16.70011868 62.21600182 -18.83203125 65.59765625 C-19.22390625 66.29890625 -19.61578125 67.00015625 -20.01953125 67.72265625 C-19.32812774 70.02553418 -19.32812774 70.02553418 -18.01953125 71.72265625 C-12.76724294 67.19985243 -9.34344056 61.6905453 -8.76953125 54.66015625 C-8.89328125 53.70109375 -8.89328125 53.70109375 -9.01953125 52.72265625 C-10.66953125 52.72265625 -12.31953125 52.72265625 -14.01953125 52.72265625 Z M-34.01953125 53.72265625 C-32.2863764 57.18896595 -31.70848354 58.27043272 -28.89453125 60.47265625 C-27.94578125 61.21515625 -26.99703125 61.95765625 -26.01953125 62.72265625 C-22.88246608 58.62318321 -22.88246608 58.62318321 -22.01953125 53.72265625 C-25.97953125 53.72265625 -29.93953125 53.72265625 -34.01953125 53.72265625 Z " fill="#FF9700" transform="translate(201.01953125,106.27734375)"/>
</svg>
