<?xml version="1.0" encoding="UTF-8"?>
<svg version="1.1" xmlns="http://www.w3.org/2000/svg" width="835" height="201">
<path d="M0 0 C11.01832009 9.52683852 11.01832009 9.52683852 12.0625 15.6875 C11.38893242 19.25740815 10.76195556 21.21065333 8.4375 24 C5.05371063 26.30712912 3.17577193 27.03678528 -0.93359375 26.83203125 C-5.04191239 25.89008091 -6.77828086 24.61787379 -9.875 21.8125 C-22.36637766 11.10560487 -35.89827027 5.59182398 -52.5625 6 C-67.6567897 7.41835561 -81.75351243 13.00842818 -92.5625 24 C-102.563222 36.21242013 -109.31997444 50.63581799 -108.81640625 66.75 C-107.17637212 81.2832255 -102.73419687 92.67950558 -93.5625 104 C-92.77939453 104.97453125 -92.77939453 104.97453125 -91.98046875 105.96875 C-82.96310189 116.01341182 -68.01874725 122.54521918 -54.7578125 123.375 C-38.06073165 123.97997817 -23.20943652 120.09014116 -10.5625 108.6875 C-9.510625 107.67236328 -9.510625 107.67236328 -8.4375 106.63671875 C-5.79060075 104.32619628 -3.72228914 104.01507445 -0.25 103.6875 C4.09280882 104.05553465 6.08385622 105.28514551 9.4375 108 C11.22235853 111.56971706 11.1664089 115.11871588 10.4375 119 C3.32109236 131.64876441 -13.67491179 139.42158295 -26.9375 143.3125 C-47.11495267 148.80911642 -69.86061103 147.22796362 -88.36181641 137.00585938 C-107.57613785 125.71827176 -122.59007336 108.87918671 -128.5625 87 C-134.02788791 64.92224626 -131.0085223 42.53279602 -119.71728516 22.89306641 C-108.05138484 3.76888225 -90.25842749 -8.72361358 -68.75 -14.8125 C-44.68582167 -19.83911108 -19.54741761 -15.00013315 0 0 Z " fill="#F8971C" transform="translate(135.5625,36)"/>
<path d="M0 0 C4.10805622 3.28116696 8.12141394 7.04323792 8.82421875 12.45703125 C7.38671875 14.70703125 7.38671875 14.70703125 5.82421875 16.45703125 C2.76903288 16.38428873 0.57515871 16.22412046 -1.62890625 13.97265625 C-2.098125 13.369375 -2.56734375 12.76609375 -3.05078125 12.14453125 C-6.95682646 7.25190761 -10.81679086 4.89614455 -17.07421875 4.078125 C-23.90984868 3.81124272 -28.36493736 4.88112732 -34.17578125 8.45703125 C-33.28890625 7.94140625 -32.40203125 7.42578125 -31.48828125 6.89453125 C-27.97554794 5.37013755 -26.72871618 5.3075523 -23.17578125 6.45703125 C-22.90625 8.77734375 -22.90625 8.77734375 -23.17578125 11.45703125 C-25.0390625 13.01171875 -25.0390625 13.01171875 -27.48828125 14.33203125 C-31.97919263 17.1043734 -33.89582201 19.15434295 -35.17578125 24.45703125 C-35.20008638 28.77524209 -34.49255547 32.7501925 -32.17578125 36.45703125 C-31.51578125 35.46703125 -30.85578125 34.47703125 -30.17578125 33.45703125 C-29.61890625 33.60140625 -29.06203125 33.74578125 -28.48828125 33.89453125 C-26.0619393 34.48472253 -23.6267178 34.98046025 -21.17578125 35.45703125 C-21.69140625 34.92078125 -22.20703125 34.38453125 -22.73828125 33.83203125 C-24.17578125 31.45703125 -24.17578125 31.45703125 -23.98828125 28.33203125 C-23.17578125 25.45703125 -23.17578125 25.45703125 -21.17578125 23.45703125 C-18.85812396 22.7377583 -16.52482251 22.06604195 -14.17578125 21.45703125 C-17.86295563 18.998915 -19.81923829 19.14584961 -24.17578125 19.45703125 C-25.16578125 20.11703125 -26.15578125 20.77703125 -27.17578125 21.45703125 C-28.49578125 21.45703125 -29.81578125 21.45703125 -31.17578125 21.45703125 C-31.11328125 19.14453125 -31.11328125 19.14453125 -30.17578125 16.45703125 C-25.44365598 13.49945296 -21.747835 13.01760472 -16.26171875 13.87890625 C-13.16020188 14.73850268 -11.33193713 16.09873575 -9.17578125 18.45703125 C-8.36328125 20.70703125 -8.36328125 20.70703125 -8.17578125 22.45703125 C-7.18578125 22.45703125 -6.19578125 22.45703125 -5.17578125 22.45703125 C-4.84578125 20.80703125 -4.51578125 19.15703125 -4.17578125 17.45703125 C-2.52578125 17.78703125 -0.87578125 18.11703125 0.82421875 18.45703125 C1.31921875 20.43703125 1.31921875 20.43703125 1.82421875 22.45703125 C2.81421875 22.12703125 3.80421875 21.79703125 4.82421875 21.45703125 C8.81956059 21.17371525 12.81995026 21.1795336 16.82421875 21.14453125 C17.93023437 21.11552734 19.03625 21.08652344 20.17578125 21.05664062 C21.76519531 21.04407227 21.76519531 21.04407227 23.38671875 21.03125 C24.35738281 21.01666748 25.32804687 21.00208496 26.328125 20.98706055 C28.82421875 21.45703125 28.82421875 21.45703125 30.67578125 23.30786133 C33.17736377 27.98928797 30.20176775 33.66678885 28.82421875 38.45703125 C29.80817627 38.85027588 29.80817627 38.85027588 30.81201172 39.25146484 C33.77656396 40.43970321 36.73789906 41.63576084 39.69921875 42.83203125 C40.73175781 43.24453125 41.76429688 43.65703125 42.828125 44.08203125 C43.81425781 44.48164062 44.80039063 44.88125 45.81640625 45.29296875 C47.18321533 45.84283447 47.18321533 45.84283447 48.57763672 46.40380859 C50.82421875 47.45703125 50.82421875 47.45703125 52.82421875 49.45703125 C53.29729216 54.47160935 52.81548607 57.38890769 49.82421875 61.45703125 C48.82421875 62.45703125 48.82421875 62.45703125 45.9453125 62.76953125 C40.56278736 62.69250048 35.80838417 60.44857324 30.88671875 58.45703125 C29.91669922 58.07546875 28.94667969 57.69390625 27.94726562 57.30078125 C25.56852358 56.36334596 23.19464063 55.41526657 20.82421875 54.45703125 C20.64246094 55.07191406 20.46070312 55.68679687 20.2734375 56.3203125 C20.02207031 57.12855469 19.77070312 57.93679687 19.51171875 58.76953125 C19.26808594 59.57003906 19.02445312 60.37054688 18.7734375 61.1953125 C17.76248883 63.60411612 16.86808922 64.84932172 14.82421875 66.45703125 C11.94921875 66.95703125 11.94921875 66.95703125 8.82421875 66.45703125 C6.26171875 64.26953125 6.26171875 64.26953125 3.82421875 61.45703125 C2.89609375 60.52890625 1.96796875 59.60078125 1.01171875 58.64453125 C0.28984375 57.92265625 -0.43203125 57.20078125 -1.17578125 56.45703125 C-1.7790625 56.66199219 -2.38234375 56.86695313 -3.00390625 57.078125 C-4.20273438 57.48224609 -4.20273438 57.48224609 -5.42578125 57.89453125 C-6.2146875 58.16136719 -7.00359375 58.42820312 -7.81640625 58.703125 C-16.83770064 61.58575715 -26.20578565 61.75435902 -34.8984375 57.7109375 C-43.19378866 53.14351431 -48.87582742 47.60143347 -52.24609375 38.59765625 C-54.94448349 29.21406669 -54.84962044 20.42675546 -50.46875 11.5859375 C-45.49290941 3.39308818 -38.9506413 -2.61082079 -29.73828125 -5.35546875 C-18.98726307 -7.9187224 -9.23895592 -6.20303126 0 0 Z M-37.17578125 9.45703125 C-37.17578125 10.44703125 -37.17578125 11.43703125 -37.17578125 12.45703125 C-36.51578125 11.46703125 -35.85578125 10.47703125 -35.17578125 9.45703125 C-35.83578125 9.45703125 -36.49578125 9.45703125 -37.17578125 9.45703125 Z M-39.17578125 12.45703125 C-43.72152653 18.90905681 -44.87073183 23.6581414 -44.17578125 31.45703125 C-42.70010075 38.23515694 -39.02683186 43.77592007 -33.32421875 47.74609375 C-27.75686246 50.82921138 -21.88313038 52.34724578 -15.60546875 50.83984375 C-13.42170781 50.12105096 -11.29605093 49.34423629 -9.17578125 48.45703125 C-12.17578125 47.12369792 -12.17578125 47.12369792 -15.17578125 48.45703125 C-22.83231594 49.44043938 -28.86920858 47.94095969 -35.17578125 43.45703125 C-40.95794072 37.39637327 -41.4408926 31.66786065 -41.4140625 23.63671875 C-41.12345445 19.75876866 -40.19357431 17.70304617 -38.17578125 14.45703125 C-38.50578125 13.79703125 -38.83578125 13.13703125 -39.17578125 12.45703125 Z M-7.17578125 28.45703125 C-7.48515625 29.38515625 -7.79453125 30.31328125 -8.11328125 31.26953125 C-8.80078125 33.33203125 -9.48828125 35.39453125 -10.17578125 37.45703125 C-8.16145859 36.95447013 -8.16145859 36.95447013 -6.17578125 35.45703125 C-4.87657379 31.91114624 -4.87657379 31.91114624 -4.17578125 28.45703125 C-5.16578125 28.45703125 -6.15578125 28.45703125 -7.17578125 28.45703125 Z M1.82421875 28.45703125 C1.57671875 29.63265625 1.32921875 30.80828125 1.07421875 32.01953125 C0.00525746 36.36509128 -1.81155666 39.67427191 -4.17578125 43.45703125 C-3.75167969 43.86953125 -3.32757813 44.28203125 -2.890625 44.70703125 C1.07403626 48.61069772 4.73755126 52.63302713 8.24609375 56.953125 C9.822855 58.80197068 9.822855 58.80197068 12.82421875 58.45703125 C14.47421875 54.49703125 16.12421875 50.53703125 17.82421875 46.45703125 C24.09623904 48.49747829 30.25156164 50.72581499 36.38671875 53.14453125 C37.20462891 53.46486328 38.02253906 53.78519531 38.86523438 54.11523438 C40.85235497 54.89381379 42.83840302 55.6751297 44.82421875 56.45703125 C45.15421875 55.13703125 45.48421875 53.81703125 45.82421875 52.45703125 C37.57421875 49.15703125 29.32421875 45.85703125 20.82421875 42.45703125 C20.82421875 38.50229972 21.43885795 36.34360335 22.82421875 32.70703125 C23.38109375 31.22976562 23.38109375 31.22976562 23.94921875 29.72265625 C24.38234375 28.60117188 24.38234375 28.60117188 24.82421875 27.45703125 C17.09649768 27.32012281 9.51540471 27.70536212 1.82421875 28.45703125 Z M-16.17578125 29.45703125 C-15.51578125 30.77703125 -14.85578125 32.09703125 -14.17578125 33.45703125 C-13.15473574 32.4785293 -12.15516915 31.47722698 -11.17578125 30.45703125 C-11.17578125 30.12703125 -11.17578125 29.79703125 -11.17578125 29.45703125 C-12.82578125 29.45703125 -14.47578125 29.45703125 -16.17578125 29.45703125 Z M-30.17578125 38.45703125 C-29.84578125 39.11703125 -29.51578125 39.77703125 -29.17578125 40.45703125 C-28.51578125 40.12703125 -27.85578125 39.79703125 -27.17578125 39.45703125 C-28.16578125 39.12703125 -29.15578125 38.79703125 -30.17578125 38.45703125 Z M-27.17578125 40.45703125 C-25.36385119 42.70027961 -25.36385119 42.70027961 -22.79296875 42.65234375 C-21.88804688 42.62914062 -20.983125 42.6059375 -20.05078125 42.58203125 C-19.14070313 42.56398437 -18.230625 42.5459375 -17.29296875 42.52734375 C-16.59429687 42.50414062 -15.895625 42.4809375 -15.17578125 42.45703125 C-15.17578125 41.79703125 -15.17578125 41.13703125 -15.17578125 40.45703125 C-19.13578125 40.45703125 -23.09578125 40.45703125 -27.17578125 40.45703125 Z " fill="#F8971C" transform="translate(106.17578125,74.54296875)"/>
<path d="M0 0 C5.13234026 1.53874634 8.67104278 7.3916542 11.97265625 11.37890625 C13.17535156 12.82523438 13.17535156 12.82523438 14.40234375 14.30078125 C17.71325467 18.34773511 20.90142203 22.49124417 24.09765625 26.62890625 C24.49033691 26.12029053 24.88301758 25.6116748 25.28759766 25.08764648 C27.09739147 22.74576372 28.91000399 20.40607713 30.72265625 18.06640625 C31.34011719 17.26654297 31.95757812 16.46667969 32.59375 15.64257812 C43.05859375 2.1484375 43.05859375 2.1484375 46.09765625 0.62890625 C52.22423739 0.17508542 52.22423739 0.17508542 55.29286194 1.76951599 C57.82164918 4.37480033 57.59881676 6.03558074 57.59936523 9.62915039 C57.60874619 10.86375504 57.61812714 12.09835968 57.62779236 13.37037659 C57.61731548 14.71827894 57.60594665 16.06617461 57.59375 17.4140625 C57.59390495 18.79503963 57.59539327 20.17601721 57.59815979 21.55699158 C57.5995441 24.44972989 57.58697986 27.34197256 57.56420898 30.23461914 C57.53579678 33.94623019 57.538568 37.6570193 57.5512991 41.36869144 C57.55824631 44.21942697 57.5504786 47.06997174 57.53804207 49.92068291 C57.53352005 51.28944607 57.53319732 52.65822966 57.53710747 54.02699471 C57.54001062 55.93738292 57.52138529 57.84776755 57.50170898 59.75805664 C57.496306 60.84599014 57.49090302 61.93392365 57.4853363 63.05482483 C57.35740189 63.9042717 57.22946747 64.75371857 57.09765625 65.62890625 C53.40279522 68.09214694 51.46472533 68.01882313 47.09765625 67.62890625 C45.0649726 66.11133756 44.21921153 65.21340523 43.69892883 62.71162415 C43.68227425 61.629076 43.68227425 61.629076 43.6652832 60.5246582 C43.64548904 59.70403397 43.62569489 58.88340973 43.6053009 58.03791809 C43.59891098 57.156577 43.59252106 56.2752359 43.5859375 55.3671875 C43.5679863 54.4613945 43.5500351 53.5556015 43.53153992 52.62236023 C43.47734966 49.72875629 43.44351339 46.8353181 43.41015625 43.94140625 C43.37699086 41.9797946 43.34250193 40.01820484 43.30664062 38.05664062 C43.22161819 33.24751528 43.15484865 28.43843984 43.09765625 23.62890625 C42.75508789 24.09264648 42.41251953 24.55638672 42.05957031 25.03417969 C40.49236445 27.15165365 38.92006641 29.26529446 37.34765625 31.37890625 C36.80882812 32.10851562 36.27 32.838125 35.71484375 33.58984375 C28.39590891 43.40792707 28.39590891 43.40792707 24.16015625 44.12890625 C17.24041292 42.99915224 13.65067759 36.69575941 9.78515625 31.37890625 C9.23537109 30.63382813 8.68558594 29.88875 8.11914062 29.12109375 C6.77269433 27.29461008 5.43246157 25.46390492 4.09765625 23.62890625 C4.07783691 24.8907373 4.05801758 26.15256836 4.03759766 27.45263672 C3.9616686 32.12309117 3.87293213 36.79322885 3.78027344 41.46337891 C3.74193104 43.48675291 3.70708754 45.51019631 3.67578125 47.53369141 C3.63024456 50.43807828 3.57223216 53.34198519 3.51171875 56.24609375 C3.49439194 57.60865799 3.49439194 57.60865799 3.47671509 58.99874878 C3.4568454 59.8394693 3.43697571 60.68018982 3.41650391 61.54638672 C3.40318024 62.28807098 3.38985657 63.02975525 3.37612915 63.79391479 C3.09765625 65.62890625 3.09765625 65.62890625 1.09765625 67.62890625 C-4.58582999 68.17019065 -4.58582999 68.17019065 -6.90234375 67.62890625 C-9.94237561 64.45978864 -10.28368978 62.13912132 -10.30639648 57.82226562 C-10.31908066 56.65425415 -10.33176483 55.48624268 -10.34483337 54.28283691 C-10.34189774 53.02547729 -10.3389621 51.76811768 -10.3359375 50.47265625 C-10.34117935 49.17823608 -10.3464212 47.88381592 -10.3518219 46.5501709 C-10.36074648 43.81313315 -10.35833718 41.07638729 -10.34838867 38.33935547 C-10.33689173 34.8352298 -10.35712292 31.3321108 -10.38630581 27.82811737 C-10.40908112 24.48041021 -10.40220119 21.13293907 -10.3984375 17.78515625 C-10.40967148 16.52779663 -10.42090546 15.27043701 -10.43247986 13.97497559 C-10.42309891 12.80696411 -10.41371796 11.63895264 -10.40405273 10.43554688 C-10.40388657 9.40836548 -10.4037204 8.38118408 -10.40354919 7.32287598 C-9.30143261 1.3990203 -5.62340433 0.19005541 0 0 Z " fill="#F8971C" transform="translate(476.90234375,68.37109375)"/>
<path d="M0 0 C2.27657201 0.00845232 4.55058399 -0.02014977 6.8269043 -0.05200195 C14.42689918 -0.08898833 20.64623337 -0.00157226 27.11401367 4.44604492 C32.02685879 9.61083082 32.40023189 13.90430356 32.33666992 20.77807617 C32.06299211 24.05740855 31.27645062 25.96324695 29.11401367 28.44604492 C28.12401367 29.10604492 27.13401367 29.76604492 26.11401367 30.44604492 C26.59612305 30.83276367 27.07823242 31.21948242 27.57495117 31.61791992 C28.2065918 32.13870117 28.83823242 32.65948242 29.48901367 33.19604492 C30.11549805 33.70651367 30.74198242 34.21698242 31.38745117 34.74291992 C34.93064941 38.23802044 35.42622317 41.36716497 35.48901367 46.25854492 C35.36261234 53.17691129 33.78888681 56.69474684 28.92651367 61.69604492 C20.53493814 66.9174697 12.03641778 66.9083585 2.36401367 66.82104492 C1.06334961 66.83264648 -0.23731445 66.84424805 -1.57739258 66.85620117 C-2.82907227 66.85233398 -4.08075195 66.8484668 -5.37036133 66.84448242 C-6.50183594 66.84109863 -7.63331055 66.83771484 -8.79907227 66.83422852 C-12.34677031 66.38810072 -14.07750946 65.64717195 -16.88598633 63.44604492 C-17.50744629 60.82763672 -17.50744629 60.82763672 -17.5012207 57.64526367 C-17.51052612 56.45392822 -17.51983154 55.26259277 -17.52941895 54.03515625 C-17.51302368 52.74762451 -17.49662842 51.46009277 -17.47973633 50.13354492 C-17.47802522 48.79980578 -17.47809091 47.46606328 -17.4798584 46.13232422 C-17.47820491 43.33780721 -17.45950439 40.54409221 -17.42797852 37.74975586 C-17.38829923 34.16824252 -17.38393264 30.58777968 -17.39144135 27.00608826 C-17.39451133 24.25222147 -17.38238982 21.49859078 -17.36531067 18.74478149 C-17.35486221 16.7821898 -17.354433 14.81955308 -17.35412598 12.85693359 C-17.33821411 11.66559814 -17.32230225 10.4742627 -17.3059082 9.24682617 C-17.29748901 8.19664307 -17.28906982 7.14645996 -17.28039551 6.06445312 C-16.88598633 3.44604492 -16.88598633 3.44604492 -15.56242371 1.60874939 C-11.46931494 -1.23005385 -4.88208729 -0.02767682 0 0 Z M-3.88598633 11.44604492 C-3.88598633 16.39604492 -3.88598633 21.34604492 -3.88598633 26.44604492 C-1.13572215 26.50008941 1.6134757 26.53973799 4.36401367 26.57104492 C5.5299707 26.59618164 5.5299707 26.59618164 6.71948242 26.62182617 C12.21997501 26.73787419 12.21997501 26.73787419 17.11401367 24.44604492 C18.85224568 22.04562929 19.14381361 20.85331079 18.92651367 17.88354492 C18.05150266 15.25851188 17.25237196 14.15673155 15.11401367 12.44604492 C11.80406654 10.79107136 8.12278367 11.34520157 4.48901367 11.38354492 C3.28631836 11.3903125 3.28631836 11.3903125 2.05932617 11.3972168 C0.07752361 11.40901324 -1.90424066 11.42694887 -3.88598633 11.44604492 Z M-3.88598633 37.44604492 C-3.88598633 43.05604492 -3.88598633 48.66604492 -3.88598633 54.44604492 C-0.65541416 54.58127818 2.56948057 54.68026038 5.80151367 54.75854492 C6.71352539 54.80043945 7.62553711 54.84233398 8.56518555 54.88549805 C13.24107451 54.97051421 15.38091175 55.00818265 19.19604492 52.08276367 C21.21705 49.3043962 22.11401367 47.87601367 22.11401367 44.44604492 C20.7284358 41.60890928 19.34399663 39.67602788 17.11401367 37.44604492 C14.8836607 37.16863247 14.8836607 37.16863247 12.32495117 37.25073242 C11.38393555 37.25717773 10.44291992 37.26362305 9.47338867 37.27026367 C8.48854492 37.28702148 7.50370117 37.3037793 6.48901367 37.32104492 C5.49643555 37.33006836 4.50385742 37.3390918 3.48120117 37.34838867 C1.02536979 37.37200244 -1.43033807 37.40787422 -3.88598633 37.44604492 Z " fill="#F8971C" transform="translate(790.885986328125,69.553955078125)"/>
<path d="M0 0 C1.70043945 1.16333008 1.70043945 1.16333008 3 3 C3.34057617 5.63549805 3.34057617 5.63549805 3.29296875 8.76171875 C3.28547607 9.76936279 3.2779834 10.77700684 3.27026367 11.81518555 C3.24295166 13.09304932 3.21563965 14.37091309 3.1875 15.6875 C3.125625 19.750625 3.06375 23.81375 3 28 C11.58 28 20.16 28 29 28 C28.88143735 19.90728955 28.88143735 19.90728955 28.72973633 11.81518555 C28.72224365 10.8075415 28.71475098 9.79989746 28.70703125 8.76171875 C28.6913208 7.73006592 28.67561035 6.69841309 28.65942383 5.63549805 C29 3 29 3 30.29956055 1.16333008 C33.15047802 -0.78708223 35.66951417 -0.35683777 39 0 C40.69448853 1.15515137 40.69448853 1.15515137 42 3 C42.38095093 5.65637207 42.38095093 5.65637207 42.38818359 8.89257812 C42.39764008 10.10393433 42.40709656 11.31529053 42.4168396 12.56335449 C42.41076691 13.87276001 42.40469421 15.18216553 42.3984375 16.53125 C42.40045851 17.88741207 42.40337018 19.24357309 42.40713501 20.59973145 C42.41155716 23.44110467 42.40513123 26.28219485 42.39111328 29.12353516 C42.37402097 32.76552103 42.3838628 36.4068437 42.40183067 40.04880524 C42.41267175 42.84894812 42.40922079 45.6489338 42.4014473 48.44908142 C42.39847298 50.4449405 42.4075834 52.44080568 42.4168396 54.43664551 C42.40738312 55.64800171 42.39792664 56.85935791 42.38818359 58.10742188 C42.38579681 59.17536987 42.38341003 60.24331787 42.38095093 61.34362793 C42 64 42 64 40.69448853 65.84875488 C37.87779987 67.76242914 35.28989425 67.29374056 32 67 C31.01 66.34 30.02 65.68 29 65 C28.65942383 62.38623047 28.65942383 62.38623047 28.70703125 59.1171875 C28.71827026 57.54106689 28.71827026 57.54106689 28.72973633 55.93310547 C28.75704834 54.59393066 28.78436035 53.25475586 28.8125 51.875 C28.9053125 45.501875 28.9053125 45.501875 29 39 C20.42 39 11.84 39 3 39 C3.11856265 47.09271045 3.11856265 47.09271045 3.27026367 55.18481445 C3.27775635 56.1924585 3.28524902 57.20010254 3.29296875 58.23828125 C3.31653442 59.7857605 3.31653442 59.7857605 3.34057617 61.36450195 C3 64 3 64 1.70043945 65.84057617 C-1.11890521 67.76291182 -3.70297217 67.29437748 -7 67 C-7.99 66.34 -8.98 65.68 -10 65 C-10.38095093 62.42591858 -10.38095093 62.42591858 -10.38818359 59.12915039 C-10.39764008 57.89769791 -10.40709656 56.66624542 -10.4168396 55.3974762 C-10.41146947 54.04753296 -10.40531642 52.69759264 -10.3984375 51.34765625 C-10.40045783 49.96764471 -10.40336892 48.58763422 -10.40713501 47.20762634 C-10.41156184 44.31320039 -10.40511715 41.41905193 -10.39111328 38.5246582 C-10.37403672 34.81426634 -10.3838499 31.1045262 -10.40183067 27.39415836 C-10.41267276 24.54340203 -10.40922004 21.6928001 -10.4014473 18.84203911 C-10.39944561 17.47409424 -10.4019035 16.10613537 -10.40888596 14.73820686 C-10.41650466 12.82555535 -10.40283328 10.91285473 -10.38818359 9.00024414 C-10.38460342 7.3671505 -10.38460342 7.3671505 -10.38095093 5.70106506 C-10 3 -10 3 -8.69448853 1.14842224 C-5.84384394 -0.78357293 -3.32060389 -0.35577899 0 0 Z " fill="#F8971C" transform="translate(660,69)"/>
<path d="M0 0 C2.35426928 1.66185718 2.92833186 2.59358375 3.43237305 5.4519043 C3.45855713 6.39976807 3.48474121 7.34763184 3.51171875 8.32421875 C3.54716797 9.35224609 3.58261719 10.38027344 3.61914062 11.43945312 C3.64169922 12.51130859 3.66425781 13.58316406 3.6875 14.6875 C3.73874023 16.31268555 3.73874023 16.31268555 3.79101562 17.97070312 C3.8735456 20.6470322 3.94267937 23.32303159 4 26 C4.75619629 25.21238281 5.51239258 24.42476562 6.29150391 23.61328125 C9.10519867 20.69086077 11.93880898 17.78844664 14.77880859 14.89160156 C16.00437402 13.63589131 17.22449696 12.37484489 18.43896484 11.10839844 C20.18739231 9.28706026 21.95460316 7.48591586 23.7265625 5.6875 C24.26431305 5.11878174 24.8020636 4.55006348 25.35610962 3.96411133 C27.97093891 1.34700357 29.53217007 0.06648073 33.24365234 -0.4609375 C36 0 36 0 38.375 1.6875 C40.33766577 4.48052437 40.37426154 5.65029596 40 9 C38.75 10.90942383 38.75 10.90942383 37 12.70703125 C36.36328369 13.37283203 35.72656738 14.03863281 35.07055664 14.72460938 C34.38727295 15.41361328 33.70398926 16.10261719 33 16.8125 C32.31607178 17.52083984 31.63214355 18.22917969 30.92749023 18.95898438 C28.96442628 20.98567369 26.98566454 22.99547925 25 25 C24.08347656 25.93199219 23.16695313 26.86398438 22.22265625 27.82421875 C20.49520728 29.56416283 18.75876165 31.29180977 17 33 C18.54596478 36.77115982 20.86086252 38.98267895 23.82421875 41.73828125 C24.76974609 42.64126953 25.71527344 43.54425781 26.68945312 44.47460938 C28.188632 45.89953008 29.69267361 47.31727124 31.21313477 48.71948242 C32.68459652 50.0818058 34.12983408 51.47228246 35.57421875 52.86328125 C36.44651123 53.68094971 37.31880371 54.49861816 38.2175293 55.34106445 C40 58 40 58 39.96411133 61.69604492 C39 65 39 65 36 67 C33.20458984 67.48046875 33.20458984 67.48046875 30 67 C27.64024613 65.16417684 25.75784242 63.46075626 23.7265625 61.3125 C23.15795502 60.73540283 22.58934753 60.15830566 22.00350952 59.5637207 C20.19607263 57.72277877 18.41064143 55.86206592 16.625 54 C15.4011352 52.7460322 14.17588913 51.49341093 12.94921875 50.2421875 C9.94991206 47.17683504 6.97016891 44.09358313 4 41 C3.98541748 41.71655762 3.97083496 42.43311523 3.95581055 43.17138672 C3.88151 46.40647983 3.78479139 49.64052019 3.6875 52.875 C3.65366211 54.56689453 3.65366211 54.56689453 3.61914062 56.29296875 C3.58369141 57.36933594 3.54824219 58.44570312 3.51171875 59.5546875 C3.48553467 60.54968262 3.45935059 61.54467773 3.43237305 62.56982422 C3.28968994 63.37178223 3.14700684 64.17374023 3 65 C-0.69486103 67.46324069 -2.63293092 67.38991688 -7 67 C-8.69448853 65.84875488 -8.69448853 65.84875488 -10 64 C-10.38095093 61.34362793 -10.38095093 61.34362793 -10.38818359 58.10742188 C-10.39764008 56.89606567 -10.40709656 55.68470947 -10.4168396 54.43664551 C-10.41076691 53.12723999 -10.40469421 51.81783447 -10.3984375 50.46875 C-10.40045851 49.11258793 -10.40337018 47.75642691 -10.40713501 46.40026855 C-10.41155716 43.55889533 -10.40513123 40.71780515 -10.39111328 37.87646484 C-10.37402097 34.23447897 -10.3838628 30.5931563 -10.40183067 26.95119476 C-10.41267175 24.15105188 -10.40922079 21.3510662 -10.4014473 18.55091858 C-10.39847298 16.5550595 -10.4075834 14.55919432 -10.4168396 12.56335449 C-10.40738312 11.35199829 -10.39792664 10.14064209 -10.38818359 8.89257812 C-10.38579681 7.82463013 -10.38341003 6.75668213 -10.38095093 5.65637207 C-10 3 -10 3 -8.69448853 1.15515137 C-5.84600834 -0.78668874 -3.32354072 -0.35609365 0 0 Z " fill="#F8971C" transform="translate(397,69)"/>
<path d="M0 0 C2.6418861 2.0597756 4.69931785 4.16088766 6.5 7 C6.375 10.125 6.375 10.125 5.5 13 C1.92529543 15.38313638 0.71446465 15.64837918 -3.5 15 C-5.37495723 13.63365186 -7.01629344 12.11424808 -8.71484375 10.53515625 C-12.34018835 7.41751855 -16.13838129 6.17983643 -20.8125 5.5625 C-26.95868255 6.2917081 -33.20449385 8.04237524 -37.4375 12.8125 C-41.53162502 19.13978412 -43.60575557 24.49845368 -42.5 32 C-40.33383519 39.80077209 -36.02516911 44.30935891 -29.1875 48.375 C-22.36582065 49.96143706 -16.45562652 49.66021922 -10.3046875 46.2265625 C-8.50296002 45.00201179 -6.97037555 43.66714882 -5.375 42.1875 C-2.5 40 -2.5 40 0.6875 39.9375 C3.90875597 41.15441892 5.03206121 41.89142373 6.5 45 C6.1545141 49.30799765 4.80622775 51.21524456 1.625 54.0625 C-6.46766125 60.80426032 -14.63461003 62.72534103 -25.0703125 62.3828125 C-35.61294795 61.20607187 -44.21084887 56.37706391 -50.8125 48.125 C-56.30113018 40.23509412 -58.35904786 31.52209153 -57.09765625 21.9453125 C-54.7242558 10.90689382 -49.74546433 3.99488916 -40.42578125 -2.3359375 C-27.3501816 -9.77279391 -12.13782465 -8.74278412 0 0 Z " fill="#F8971C" transform="translate(373.5,75)"/>
<path d="M0 0 C1.95754508 1.4350559 3.81903357 2.89628374 5.63671875 4.50390625 C6.20648438 4.98601562 6.77625 5.468125 7.36328125 5.96484375 C8.63671875 7.50390625 8.63671875 7.50390625 8.51171875 11.06640625 C7.63671875 14.50390625 7.63671875 14.50390625 4.63671875 16.50390625 C-1.15128139 16.50390625 -3.65593756 14.67447935 -7.6796875 10.9375 C-11.03922629 8.07682544 -14.45647865 7.58786945 -18.73828125 7.19140625 C-25.16269045 7.74523463 -30.80116752 9.81506714 -35.36328125 14.50390625 C-39.31674879 20.38068232 -41.23983907 26.81858835 -39.921875 33.86328125 C-38.20831058 39.69919208 -35.66878936 44.43957142 -30.35546875 47.7578125 C-25.09434686 50.38837344 -20.20448199 51.53287222 -14.36328125 50.50390625 C-10.01370673 49.01421681 -6.58468263 46.80626437 -3.17578125 43.75390625 C-0.36328125 41.50390625 -0.36328125 41.50390625 2.26171875 40.94140625 C5.48046278 41.70374036 6.69655592 42.84516459 8.63671875 45.50390625 C9.32421875 47.81640625 9.32421875 47.81640625 8.63671875 50.50390625 C3.79435468 57.23370935 -4.21814565 62.01063139 -12.36328125 63.50390625 C-24.90448636 64.47844576 -34.68965085 62.5403436 -44.42578125 54.3515625 C-51.9523176 47.17403892 -54.48958873 39.36687867 -54.80078125 29.06640625 C-54.5383735 18.13275012 -51.11437072 11.09608956 -43.36328125 3.50390625 C-31.55198961 -7.68573846 -13.50078472 -8.54677776 0 0 Z " fill="#F8971C" transform="translate(226.36328125,73.49609375)"/>
<path d="M0 0 C3 2 3 2 3.37854004 3.82585144 C3.38059448 4.56418716 3.38264893 5.30252289 3.38476562 6.06323242 C3.39487671 6.90137985 3.40498779 7.73952728 3.41540527 8.60307312 C3.41238403 9.51136368 3.40936279 10.41965424 3.40625 11.35546875 C3.41708618 12.29046707 3.42792236 13.22546539 3.43908691 14.188797 C3.47345006 17.18843427 3.48895275 20.18769155 3.5 23.1875 C3.51460643 27.11885345 3.54842227 31.04936272 3.59375 34.98046875 C3.59072876 35.87863815 3.58770752 36.77680756 3.58459473 37.70219421 C3.64997649 43.22386031 4.37596156 47.11101466 7 52 C10.56758466 55.25279778 14.12620358 55.51839537 18.78125 55.35546875 C22.26723014 54.79697545 24.38200616 53.29872629 27 51 C28.77694603 48.10457956 29.25234676 45.92969973 29.27124023 42.55444336 C29.28142685 41.68351547 29.29161346 40.81258759 29.30210876 39.91526794 C29.30424881 38.98287796 29.30638885 38.05048798 29.30859375 37.08984375 C29.33374192 35.11132503 29.3591401 33.13280947 29.38476562 31.15429688 C29.41357224 28.03801207 29.43759434 24.92178195 29.45629883 21.80541992 C29.47789287 18.79578069 29.51731401 15.78676775 29.55859375 12.77734375 C29.55870956 11.84292953 29.55882538 10.90851532 29.5589447 9.94578552 C29.57228348 9.0780098 29.58562225 8.21023407 29.59936523 7.31616211 C29.60697121 6.17176918 29.60697121 6.17176918 29.61473083 5.0042572 C30.10909386 2.43246909 30.91038143 1.54672701 33 0 C39.11155376 -0.65480933 39.11155376 -0.65480933 41.6934967 1.24815369 C43.33651119 3.45121653 43.3851387 4.67275881 43.40405273 7.40454102 C43.41673691 8.2929921 43.42942108 9.18144318 43.44248962 10.09681702 C43.43955399 11.05615646 43.43661835 12.01549591 43.43359375 13.00390625 C43.4388356 13.99696274 43.44407745 14.99001923 43.44947815 16.01316833 C43.45590677 18.11887681 43.45455054 20.22462116 43.44604492 22.33032227 C43.43759591 25.52622129 43.466186 28.72029607 43.49804688 31.91601562 C43.4996607 33.9661453 43.49907789 36.01627811 43.49609375 38.06640625 C43.51294472 39.484161 43.51294472 39.484161 43.53013611 40.93055725 C43.45581038 48.1446216 42.18963148 55.28484409 37.35520935 60.91578674 C31.38144858 66.57881815 25.2169973 68.16572111 17.125 68.4375 C8.60651327 68.20973298 2.06920904 66.58200256 -3.9375 60.3125 C-9.68707513 53.71532166 -10.46154229 45.24842045 -10.43359375 36.85546875 C-10.4388356 35.92326004 -10.44407745 34.99105133 -10.44947815 34.03059387 C-10.4558575 32.07680248 -10.45461485 30.12297247 -10.44604492 28.16918945 C-10.43747238 25.17786213 -10.46645289 22.1884079 -10.49804688 19.19726562 C-10.49965759 17.29166724 -10.49908384 15.38606547 -10.49609375 13.48046875 C-10.50732773 12.58877487 -10.51856171 11.69708099 -10.53013611 10.77836609 C-10.46092856 4.64370952 -10.46092856 4.64370952 -8.16040039 1.4309082 C-5.25661303 -0.49237101 -3.41708289 -0.43622335 0 0 Z " fill="#F8971C" transform="translate(721,69)"/>
<path d="M0 0 C2.2734375 2.01953125 2.2734375 2.01953125 4.375 4.8125 C5.13425781 5.80507812 5.89351562 6.79765625 6.67578125 7.8203125 C7.44277344 8.86960937 8.20976563 9.91890625 9 11 C10.16595703 12.57394531 10.16595703 12.57394531 11.35546875 14.1796875 C13.25785202 16.77231603 15.13862444 19.37784424 17 22 C20.08465293 19.13362791 22.65648497 16.21186434 25.12109375 12.79296875 C25.66443359 12.04208984 26.20777344 11.29121094 26.76757812 10.51757812 C27.88881363 8.95309397 28.99808295 7.37997002 30.09570312 5.79882812 C34.23952231 0.13479126 34.23952231 0.13479126 38.26171875 -0.578125 C41.42725056 0.09020411 42.90656609 0.50398264 45 3 C45.58911772 6.5037001 45.63283623 8.9518026 43.76171875 12.05102539 C42.01900509 14.27665037 40.19803304 16.39407998 38.3125 18.5 C37.05652249 19.94612035 35.80258591 21.39401601 34.55078125 22.84375 C33.94830566 23.53597656 33.34583008 24.22820312 32.72509766 24.94140625 C30.29415736 27.84229622 28.14492008 30.88309893 26 34 C26.70125 34.82242188 27.4025 35.64484375 28.125 36.4921875 C30.09882065 38.81026702 32.06189834 41.13698889 34.01953125 43.46875 C35.82555396 45.61952199 37.65197287 47.73815902 39.51171875 49.84375 C44.83099542 56.03206469 44.83099542 56.03206469 45.6875 60.9375 C45 64 45 64 43.9375 65.9375 C40.86177189 67.62418961 38.44486075 67.34595824 35 67 C32.62890625 64.98046875 32.62890625 64.98046875 30.5625 62.1875 C29.81226563 61.19492188 29.06203125 60.20234375 28.2890625 59.1796875 C27.53367187 58.13039062 26.77828125 57.08109375 26 56 C25.22398437 54.95070312 24.44796875 53.90140625 23.6484375 52.8203125 C21.74334983 50.22858546 19.86187533 47.62285979 18 45 C14.06374508 48.63200333 11.03370037 52.82886008 7.875 57.125 C6.81133946 58.56617076 5.74629591 60.00632209 4.6796875 61.4453125 C4.21288574 62.07969238 3.74608398 62.71407227 3.26513672 63.36767578 C2 65 2 65 0 67 C-6.00458716 67.54587156 -6.00458716 67.54587156 -8.9375 65.9375 C-10.65412311 62.80718727 -10.38304666 60.52330654 -10 57 C-8.47582501 54.39429415 -6.50993439 52.30725255 -4.4375 50.125 C-3.33567921 48.90766049 -2.23541587 47.68890949 -1.13671875 46.46875 C-0.33113525 45.58703125 -0.33113525 45.58703125 0.49072266 44.6875 C3.53064242 41.28861204 6.26260654 37.64343215 9 34 C4.89714315 28.38471749 0.57348011 22.97767502 -3.8515625 17.61328125 C-4.56054688 16.75089844 -5.26953125 15.88851562 -6 15 C-6.73992188 14.12859375 -7.47984375 13.2571875 -8.2421875 12.359375 C-10 10 -10 10 -10.5 6.9375 C-10 4 -10 4 -8.375 1.625 C-5.28066069 -0.49217953 -3.69566912 -0.4758174 0 0 Z " fill="#F8971C" transform="translate(574,69)"/>
<path d="M0 0 C0.99 0.66 1.98 1.32 3 2 C3.36076355 4.25259399 3.36076355 4.25259399 3.34057617 7.09228516 C3.34034958 8.15323395 3.34012299 9.21418274 3.33988953 10.30728149 C3.32440567 11.45626923 3.30892181 12.60525696 3.29296875 13.7890625 C3.28872391 14.96262299 3.28447906 16.13618347 3.28010559 17.3453064 C3.26326976 21.10543454 3.22560777 24.86503297 3.1875 28.625 C3.17245954 31.16926311 3.15877003 33.7135346 3.14648438 36.2578125 C3.11335017 42.50539005 3.06310206 48.75265719 3 55 C4.38505737 54.9685791 4.38505737 54.9685791 5.7980957 54.93652344 C9.22544323 54.86833469 12.6520698 54.81819538 16.07983398 54.78027344 C17.56302261 54.76016241 19.04613199 54.73286926 20.52905273 54.69824219 C22.66149435 54.64969648 24.79288777 54.62702805 26.92578125 54.609375 C28.20880127 54.58842773 29.49182129 54.56748047 30.8137207 54.54589844 C34 55 34 55 35.94995117 56.82910156 C37.44200549 59.91381371 36.98182801 61.77399367 36 65 C32.17309774 67.55126817 29.00973264 67.3235873 24.5703125 67.3359375 C23.742966 67.3425943 22.91561951 67.3492511 22.0632019 67.35610962 C20.3131533 67.36623218 18.56306613 67.37092676 16.81298828 67.37060547 C14.14160152 67.37497286 11.47187503 67.41127848 8.80078125 67.44921875 C7.09896397 67.45508826 5.39713886 67.45905675 3.6953125 67.4609375 C2.89932648 67.47530853 2.10334045 67.48967957 1.28323364 67.50448608 C0.5325058 67.49833282 -0.21822205 67.49217957 -0.99169922 67.48583984 C-1.64661346 67.48868988 -2.30152771 67.49153992 -2.97628784 67.49447632 C-6.10541308 66.72990201 -7.76186913 65.28078766 -10 63 C-10.62818909 60.30603027 -10.62818909 60.30603027 -10.63110352 57.19335938 C-10.64363663 56.0253479 -10.65616974 54.85733643 -10.66908264 53.65393066 C-10.65582443 52.39657104 -10.64256622 51.13921143 -10.62890625 49.84375 C-10.63131821 48.54932983 -10.63373016 47.25490967 -10.63621521 45.92126465 C-10.63907084 43.18400617 -10.62439765 40.44756704 -10.59692383 37.71044922 C-10.56283914 34.20623836 -10.56886018 30.70349212 -10.5875864 27.19921112 C-10.6007116 23.85141232 -10.58243777 20.5040386 -10.56640625 17.15625 C-10.57136612 15.89889038 -10.57632599 14.64153076 -10.58143616 13.34606934 C-10.56559982 12.17805786 -10.54976349 11.01004639 -10.53344727 9.80664062 C-10.52724869 8.77945923 -10.52105011 7.75227783 -10.5146637 6.69396973 C-9.37636324 0.73561869 -5.63128136 -0.71888698 0 0 Z " fill="#F8971C" transform="translate(252,69)"/>
<path d="M0 0 C1.69448853 1.15515137 1.69448853 1.15515137 3 3 C3.38095093 5.65637207 3.38095093 5.65637207 3.38818359 8.89257812 C3.40236832 10.70961243 3.40236832 10.70961243 3.4168396 12.56335449 C3.41076691 13.87276001 3.40469421 15.18216553 3.3984375 16.53125 C3.40045851 17.88741207 3.40337018 19.24357309 3.40713501 20.59973145 C3.41155716 23.44110467 3.40513123 26.28219485 3.39111328 29.12353516 C3.37402097 32.76552103 3.3838628 36.4068437 3.40183067 40.04880524 C3.41267175 42.84894812 3.40922079 45.6489338 3.4014473 48.44908142 C3.39847298 50.4449405 3.4075834 52.44080568 3.4168396 54.43664551 C3.40738312 55.64800171 3.39792664 56.85935791 3.38818359 58.10742188 C3.38579681 59.17536987 3.38341003 60.24331787 3.38095093 61.34362793 C3 64 3 64 1.69448853 65.84875488 C-1.12220013 67.76242914 -3.71010575 67.29374056 -7 67 C-7.99 66.34 -8.98 65.68 -10 65 C-10.38095093 62.42591858 -10.38095093 62.42591858 -10.38818359 59.12915039 C-10.39764008 57.89769791 -10.40709656 56.66624542 -10.4168396 55.3974762 C-10.41146947 54.04753296 -10.40531642 52.69759264 -10.3984375 51.34765625 C-10.40045783 49.96764471 -10.40336892 48.58763422 -10.40713501 47.20762634 C-10.41156184 44.31320039 -10.40511715 41.41905193 -10.39111328 38.5246582 C-10.37403672 34.81426634 -10.3838499 31.1045262 -10.40183067 27.39415836 C-10.41267276 24.54340203 -10.40922004 21.6928001 -10.4014473 18.84203911 C-10.39944561 17.47409424 -10.4019035 16.10613537 -10.40888596 14.73820686 C-10.41650466 12.82555535 -10.40283328 10.91285473 -10.38818359 9.00024414 C-10.38460342 7.3671505 -10.38460342 7.3671505 -10.38095093 5.70106506 C-10 3 -10 3 -8.69448853 1.14842224 C-5.84384394 -0.78357293 -3.32060389 -0.35577899 0 0 Z " fill="#F8971C" transform="translate(554,69)"/>
<path d="M0 0 C2.75064021 2.10596589 3.87094965 3.29484928 4.50120544 6.73866272 C4.50137161 7.78662521 4.50153778 8.83458771 4.50170898 9.91430664 C4.51108994 11.10556656 4.52047089 12.29682648 4.53013611 13.52418518 C4.51890213 14.80655563 4.50766815 16.08892609 4.49609375 17.41015625 C4.49754898 18.72914413 4.49900421 20.04813202 4.50050354 21.40708923 C4.50188643 24.19550581 4.48934755 26.98340731 4.46655273 29.77172852 C4.43813983 33.34533872 4.44091388 36.91809516 4.45364285 40.49176884 C4.4622692 43.90215426 4.4471569 47.31228526 4.43359375 50.72265625 C4.43652939 52.00705093 4.43946503 53.29144562 4.44248962 54.61476135 C4.42346336 56.39692299 4.42346336 56.39692299 4.40405273 58.21508789 C4.39864975 59.26225479 4.39324677 60.30942169 4.38768005 61.38832092 C4 64 4 64 2.59803772 65.83885193 C-0.42512879 68.03551094 -3.38347707 67.28702563 -7 67 C-9.71723032 64.28276968 -9.25885728 62.82379081 -9.2746582 59.02148438 C-9.28419022 57.76678345 -9.29372223 56.51208252 -9.30354309 55.21936035 C-9.3032817 53.84415662 -9.30234481 52.46895287 -9.30078125 51.09375 C-9.30466654 49.68892286 -9.30900086 48.28409689 -9.31376648 46.87927246 C-9.32123354 43.9336364 -9.3209337 40.98812019 -9.31567383 38.04248047 C-9.30987463 34.26252304 -9.3268181 30.48305489 -9.3500185 26.70317841 C-9.36472927 23.80187092 -9.36563128 20.90068204 -9.36250877 17.99934387 C-9.36302321 16.60544362 -9.36828375 15.21153694 -9.37832069 13.81767273 C-9.39061667 11.87132484 -9.3819769 9.92487837 -9.37231445 7.97851562 C-9.37294388 6.86980103 -9.3735733 5.76108643 -9.3742218 4.61877441 C-9.25072861 3.75457886 -9.12723541 2.8903833 -9 2 C-5.50875983 -0.32749345 -4.10777749 -0.50299316 0 0 Z " fill="#F8971C" transform="translate(305,69)"/>
</svg>
